<svg width="776" height="724" viewBox="0 0 776 724" fill="none" xmlns="http://www.w3.org/2000/svg"><path d="M484 4C431.679 4 331.769 11.7772 281.334 30.2054C240.748 45.0348 197.71 68.0153 163.681 94.7155C103.748 141.739 58.1154 220.917 31.9607 291.088C15.2107 336.027 5.80343 383 4.00004 445.117C3.12903 475.118 11.6959 502.297 15.0516 532.219C18.6226 564.061 33.7535 592.612 53.1325 617.617C72.1245 642.123 94.8367 664.057 120.485 681.559C160.99 709.2 208.817 714.186 256.609 717.935C327.36 723.484 401.581 718.657 469.749 698.042C534.07 678.59 602.158 649.052 649.781 600.282C692.756 556.271 725.51 502.045 748.535 445.117C768.978 394.572 774.483 335.632 770.986 281.426C767.441 226.483 734.792 170.114 704.628 125.408C663.987 65.1709 608.689 29.0686 536.106 29.0686C494.401 29.0686 370.585 24.7494 331.5 41.5" stroke="#0816D1" stroke-width="7" stroke-linecap="round" stroke-linejoin="round"></path></svg>