<svg width="300" height="224" viewBox="0 0 300 224" fill="none" xmlns="http://www.w3.org/2000/svg"><circle cx="203.226" cy="126.806" r="94.2742" fill="#0816D1" stroke="white" stroke-width="5"></circle><path d="M251.413 102.766L283.329 158.312L1.32033 174.866L222.527 73.8802L251.413 102.766Z" fill="white" stroke="black" stroke-width="0.5"></path><path d="M80.2725 55.7964L22.25 5.81251L85.085 56.2994M80.2725 55.7964L84.8126 12.3502L85.085 56.2994M80.2725 55.7964L27.335 50.2645L84.7358 59.6414M80.2725 55.7964L84.7358 59.6414M84.7358 59.6414L124.905 94.2456M85.085 56.2994L123.011 86.3431M123.011 86.3431L133.441 12.5667L125.523 88.3333M123.011 86.3431L125.523 88.3333M125.523 88.3333L183.933 134.605L182.928 144.23L129.368 98.0906M124.905 94.2456L22.8228 93.4434L129.368 98.0906M124.905 94.2456L129.368 98.0906" stroke="black"></path><circle cx="101.613" cy="54.2258" r="4.83871" fill="#C8C8C8"></circle><circle cx="203.226" cy="155.839" r="38.7097" fill="black"></circle><circle cx="198.387" cy="151" r="33.871" fill="#DBDBDB"></circle><circle cx="91.9356" cy="83.2581" r="4.83871" fill="#C4C4C4"></circle><circle cx="33.8709" cy="34.871" r="4.83871" fill="#FEF8F8"></circle></svg>