<svg xmlns="http://www.w3.org/2000/svg" width="1685" height="1685" viewBox="806 212 1685 857">
<path fill="#2517D2" stroke="#2517D2" fill-rule="evenodd" d="M 806 1064 C 806 1064 814 1069 814 1069 C 814 1069 856 1004 871 983 C 886 962 1001 791 1132 717 C 1148 708 1179 691 1220 679 C 1220 679 1218 671 1218 671 C 1218 671 1170 684 1116 717 C 1062 750 1034 778 1013 799 C 992 820 938 864 806 1064 zM 2127 678 C 2127 678 2127 687 2127 687 C 2127 687 2252 682 2344 606 C 2436 530 2451 435 2460 397 C 2469 361 2473 297 2473 273 C 2473 272 2473 271 2473 270 C 2473 270 2486 271 2491 275 C 2491 275 2467 212 2467 212 L 2447 277 C 2447 277 2455 271 2464 271 C 2464 271 2465 292 2464 301 C 2463 310 2457 377 2451 397 C 2449 406 2439 451 2428 475 C 2417 499 2400 547 2350 590 C 2328 608 2298 636 2227 659 C 2184 671 2167 674 2127 678 z"/>
</svg>