<svg xmlns="http://www.w3.org/2000/svg" width="400" height="400" viewBox="328 245 2635 811">
<path fill="white" stroke="white" fill-rule="evenodd" d="M 646 487 C 646 487 646 537 655 567 C 664 597 674 615 674 615 C 674 615 646 620 611 631 C 576 642 493 679 456 717 C 444 728 403 759 367 849 C 340 913 341 1011 341 1011 C 341 1011 334 1011 328 1008 C 328 1008 342 1046 343 1051 C 344 1056 353 1018 359 1008 C 359 1008 351 1011 346 1011 C 346 1011 349 953 352 939 C 355 925 354 887 391 810 C 428 733 497 690 515 681 C 533 671 555 655 614 636 C 677 620 677 620 677 620 C 677 620 706 662 737 678 C 768 694 791 707 865 714 C 939 721 1022 711 1196 666 C 1310 632 1310 631 1310 631 C 1310 631 1601 676 1678 691 C 1755 704 2062 755 2090 759 C 2118 763 2739 886 2883 664 C 2963 544 2925 419 2922 413 C 2919 405 2892 287 2684 266 C 2476 245 2175 330 2023 372 C 1873 414 1373 610 1313 625 C 1313 625 1175 608 1161 607 C 1147 606 918 569 680 613 C 680 613 669 593 661 566 C 654 536 652 526 652 487 C 652 487 646 487 646 487 zM 684 618 C 684 618 805 594 928 598 C 1051 602 1070 600 1299 629 C 1300 630 1210 656 1170 667 C 1130 678 976 717 862 708 C 748 699 708 651 684 618 zM 1326 626 C 1326 626 1533 553 1673 500 C 1813 447 1961 396 2024 378 C 2087 360 2301 299 2442 281 C 2583 263 2683 268 2751 284 C 2819 300 2932 347 2927 508 C 2922 669 2815 732 2738 756 C 2659 777 2633 788 2488 789 C 2427 787 2365 793 2122 758 C 1882 719 1591 669 1591 669 L 1326 626 z"/>
</svg>