<svg width="421" height="37" viewBox="0 0 421 37" fill="none" xmlns="http://www.w3.org/2000/svg"><path d="M1.86084 30.2386C10.5535 16.7167 28.7897 8.33574 44.5224 7.43673C59.7823 6.56474 68.3486 11.7081 79.1599 22.7494C87.4222 31.1875 95.1877 34.2884 107.177 32.5121C123.54 30.088 138.094 16.589 153.517 10.9807C165.496 6.62452 169.492 5.81079 182.5 7.43673C186.635 7.9536 201.5 13.5001 201.5 13.5001C208.141 17.5424 218.5 21.4669 221.722 23.2844C240.811 34.0526 247.5 41.5 260 27.4925C269 14 293.929 3.31613 309.662 2.41711C324.921 1.54512 333.488 6.6885 344.299 17.7298C352.561 26.1679 360.327 29.2687 372.317 27.4925C388.679 25.0684 403.233 11.5694 418.656 5.9611" stroke="#0816D1" stroke-width="3" stroke-linecap="round" stroke-linejoin="round"></path></svg>