<svg width="388" height="105" viewBox="0 0 388 105" fill="none" xmlns="http://www.w3.org/2000/svg"><path d="M255.535 9.04204C237.38 9.04204 219.225 9.04204 201.07 9.04204C178.825 9.04204 155.104 6.60703 133.091 9.86106C110.914 13.1395 87.4161 15.9515 65.9315 22.3512C50.3916 26.9801 32.0987 30.0265 20.0662 41.8029C10.173 51.4857 -6.07445 75.4509 7.16663 88.692C24.5792 106.105 58.8609 103.025 80.8786 103.025C122.361 103.025 163.599 96.3922 204.961 95.6536C246.166 94.9178 284.997 92.0206 324.128 78.6589C341.477 72.735 372.177 63.7531 381.869 45.898C387.749 35.0672 388.007 30.1292 377.16 24.7058C329.918 1.08476 275.726 5.35644 224.208 5.35644C197.892 5.35644 172.199 1.67084 145.889 1.67084C125.297 1.67084 109.96 7.19609 91.5259 16.4132" stroke="#0816D1" stroke-width="3" stroke-linecap="round" stroke-linejoin="round"></path></svg>